<svg width="179" height="188" viewBox="0 0 179 188" fill="none" xmlns="http://www.w3.org/2000/svg">
<g id="fluent-mdl2:touch">
<path id="Vector" d="M139.844 81.8468C142.174 81.8468 144.36 82.3035 146.399 83.217C148.438 84.1305 150.215 85.3789 151.73 86.9622C153.245 88.5456 154.44 90.4029 155.314 92.5344C156.188 94.6658 156.625 96.9495 156.625 99.3854V134.463C156.625 141.709 155.314 148.53 152.692 154.924C150.07 161.319 146.457 166.891 141.854 171.641C137.251 176.391 131.919 180.136 125.859 182.876C119.799 185.617 113.273 187.017 106.281 187.078C97.8906 187.078 90.0827 185.404 82.8574 182.054C75.6322 178.705 69.0479 173.955 63.1045 167.804L21.8506 124.688C20.2191 122.983 18.9663 121.004 18.0923 118.751C17.2183 116.498 16.7812 114.184 16.7812 111.809C16.7812 109.251 17.2474 106.876 18.1797 104.684C19.112 102.491 20.3647 100.542 21.938 98.8373C23.5112 97.1322 25.3467 95.8533 27.4443 95.0007C29.542 94.1482 31.8145 93.661 34.2617 93.5392C39.0397 93.5392 43.1476 95.3357 46.5854 98.9287L55.9375 108.611V77.9189C52.4997 76.2137 49.4115 74.0823 46.6729 71.5246C43.9342 68.9669 41.6035 66.0742 39.6807 62.8466C37.7578 59.6191 36.2428 56.1479 35.1357 52.4331C34.0286 48.7183 33.5042 44.8818 33.5625 40.9234C33.5625 35.2599 34.5822 29.9618 36.6216 25.029C38.661 20.0963 41.4578 15.7421 45.0122 11.9664C48.5666 8.19077 52.7036 5.26767 57.4233 3.19714C62.1431 1.12661 67.2415 0.0608979 72.7188 0C78.1377 0 83.207 1.06571 87.9268 3.19714C92.6465 5.32857 96.8127 8.25167 100.425 11.9664C104.038 15.6812 106.835 20.005 108.816 24.9377C110.797 29.8704 111.817 35.199 111.875 40.9234C111.875 46.5869 110.797 52.0068 108.641 57.1831C106.485 62.3595 103.426 66.8964 99.4639 70.7938C101.503 71.3419 103.339 72.2554 104.97 73.5342C106.602 74.8131 108.029 76.3964 109.253 78.2843C111.875 76.7618 114.614 76.0006 117.469 76.0006C120.382 76.0006 123.092 76.7009 125.597 78.1016C128.103 79.5022 130.113 81.5119 131.628 84.1305C134.25 82.608 136.989 81.8468 139.844 81.8468ZM44.75 40.9234C44.75 45.4907 45.7406 49.8449 47.7217 53.986C49.7028 58.1271 52.4414 61.5678 55.9375 64.3082V40.9234C55.9375 38.4875 56.3745 36.2038 57.2485 34.0724C58.1226 31.941 59.3171 30.0836 60.832 28.5002C62.347 26.9169 64.1242 25.6685 66.1636 24.755C68.203 23.8415 70.388 23.3848 72.7188 23.3848C75.0495 23.3848 77.2345 23.8415 79.2739 24.755C81.3133 25.6685 83.0905 26.9169 84.6055 28.5002C86.1204 30.0836 87.3149 31.941 88.189 34.0724C89.063 36.2038 89.5 38.4875 89.5 40.9234V64.3082C92.9961 61.5678 95.7347 58.1271 97.7158 53.986C99.6969 49.8449 100.688 45.4907 100.688 40.9234C100.688 36.9041 99.9591 33.1285 98.5024 29.5964C97.0457 26.0643 95.0355 22.989 92.4717 20.3704C89.9079 17.7517 86.9362 15.6508 83.5566 14.0674C80.1771 12.4841 76.5645 11.6924 72.7188 11.6924C68.873 11.6924 65.2604 12.4536 61.8809 13.9761C58.5013 15.4985 55.5296 17.5995 52.9658 20.279C50.402 22.9585 48.3918 26.0643 46.9351 29.5964C45.4784 33.1285 44.75 36.9041 44.75 40.9234ZM145.438 99.3854C145.438 97.802 144.884 96.4318 143.777 95.2748C142.67 94.1177 141.359 93.5392 139.844 93.5392C137.863 93.5392 136.493 94.1177 135.736 95.2748C134.978 96.4318 134.512 97.8629 134.337 99.5681C134.163 101.273 134.133 103.161 134.25 105.232C134.367 107.302 134.367 109.16 134.25 110.804C134.133 112.448 133.667 113.91 132.852 115.188C132.036 116.467 130.637 117.046 128.656 116.924C126.5 116.924 125.044 116.224 124.286 114.823C123.529 113.422 123.062 111.595 122.888 109.342C122.713 107.089 122.771 104.744 123.062 102.308C123.354 99.8726 123.412 97.528 123.237 95.2748C123.062 93.0216 122.625 91.2251 121.926 89.8853C121.227 88.5456 119.741 87.8148 117.469 87.693C115.488 87.693 114.118 88.2715 113.361 89.4286C112.603 90.5856 112.137 92.0167 111.962 93.7219C111.788 95.427 111.758 97.3149 111.875 99.3854C111.992 101.456 111.992 103.313 111.875 104.958C111.758 106.602 111.292 108.063 110.477 109.342C109.661 110.621 108.262 111.2 106.281 111.078C104.125 111.078 102.669 110.377 101.911 108.977C101.154 107.576 100.688 105.749 100.513 103.496C100.338 101.243 100.396 98.8982 100.688 96.4623C100.979 94.0264 101.037 91.6818 100.862 89.4286C100.688 87.1754 100.25 85.3789 99.5513 84.0391C98.8521 82.6994 97.3662 81.9686 95.0938 81.8468C93.1126 81.8468 91.7433 82.4253 90.9858 83.5824C90.2284 84.7394 89.7622 86.1705 89.5874 87.8757C89.4126 89.5808 89.3835 91.4687 89.5 93.5392C89.6165 95.6097 89.6165 97.4671 89.5 99.1114C89.3835 100.756 88.9173 102.217 88.1016 103.496C87.2858 104.775 85.8874 105.353 83.9062 105.232C82.3913 105.232 81.0802 104.653 79.9731 103.496C78.866 102.339 78.3125 100.969 78.3125 99.3854V40.9234C78.3125 39.34 77.759 37.9698 76.6519 36.8128C75.5448 35.6557 74.2337 35.0772 72.7188 35.0772C71.2038 35.0772 69.8927 35.6557 68.7856 36.8128C67.6785 37.9698 67.125 39.34 67.125 40.9234V112.813C67.125 114.214 66.8919 115.493 66.4258 116.65C65.9596 117.807 65.2896 118.873 64.4155 119.847C63.5415 120.821 62.5218 121.522 61.3564 121.948C60.1911 122.374 58.9674 122.648 57.6855 122.77C56.4036 122.77 55.18 122.527 54.0146 122.039C52.8493 121.552 51.7713 120.821 50.7808 119.847L38.6318 107.15C37.4082 105.871 35.9515 105.232 34.2617 105.232C32.5719 105.232 31.1152 105.871 29.8916 107.15C28.668 108.429 28.027 109.982 27.9688 111.809C27.9688 113.575 28.5806 115.097 29.8042 116.376L71.0581 159.583C75.9526 164.698 81.3133 168.596 87.1401 171.275C92.967 173.955 99.3473 175.325 106.281 175.386C111.7 175.386 116.77 174.32 121.489 172.189C126.209 170.057 130.346 167.134 133.9 163.42C137.455 159.705 140.252 155.381 142.291 150.448C144.33 145.516 145.379 140.187 145.438 134.463V99.3854Z" fill="black"/>
</g>
</svg>
